<svg width="285" height="62" viewBox="0 0 285 62" fill="none" xmlns="http://www.w3.org/2000/svg">
<g clip-path="url(#clip0)">
<path d="M87.4322 44.2857H84.8509V49.4836H87.4322V61.4178H92.8863V49.4836H103.461V44.2857H92.8863V36.9256H109.249V31.7693H87.4322V44.2857Z" fill="white"/>
<path d="M31.767 31.7693H42.6336C51.7932 31.7693 58.1216 38.2562 58.1216 46.448V46.5312C58.1216 54.723 51.7932 61.4178 42.6336 61.4178H31.767V31.7693ZM37.1379 36.9671V56.4279H42.592C48.7122 56.4279 52.7091 52.3112 52.7091 46.6144V46.5312C52.7091 40.8343 48.7122 36.9671 42.592 36.9671H37.1379Z" fill="white"/>
<path d="M137.518 31.7693H142.681L156.545 51.8538V31.7693H161.833V61.3763H156.712L142.806 41.2086V61.4178H137.518V31.7693Z" fill="white"/>
<path d="M178.861 44.2857C172.575 42.8718 171.534 41.7907 171.534 39.7115V39.6284C171.534 37.5908 173.532 36.2186 176.488 36.2186C179.236 36.2186 181.984 37.2166 184.857 39.2541L184.94 39.2957L187.896 35.3038L187.938 35.2206L187.854 35.179C184.482 32.6009 180.777 31.3534 176.572 31.3534C170.41 31.3534 165.913 35.0543 165.913 40.1274V40.2105C165.913 45.6995 169.577 47.5707 176.28 49.1093C182.151 50.3983 183.191 51.5627 183.191 53.5586V53.6418C183.191 55.8041 181.026 57.2595 177.779 57.2595C174.24 57.2595 171.242 56.0952 168.078 53.4339L167.995 53.3923L164.622 57.2179L164.706 57.2595C168.37 60.3782 172.824 62 177.654 62C184.44 62 188.812 58.507 188.812 53.1012V53.0181C188.854 47.6954 184.857 45.6579 178.861 44.2857Z" fill="white"/>
<path d="M133.855 36.9671V31.7693H112.912L112.954 44.2857H110.623L110.581 49.5252H112.912V61.4178H133.855V55.8873H118.283V49.5252H128.692V44.2857H118.325L118.283 36.9671H133.855Z" fill="white"/>
<path d="M214.084 36.9671V31.7693H193.142L193.184 44.2857H190.852V49.5252H193.142V61.4178H214.084V55.8873H198.555V49.5252H208.963V44.2857H198.555V36.9671H214.084Z" fill="white"/>
<path d="M83.7684 36.9671V31.7693H62.8263V44.2857H60.5364L60.4948 49.5252H62.8263V61.4178H83.7684V55.8873H68.1971V49.5252H78.6057V44.2857H68.2387L68.1971 36.9671H83.7684Z" fill="white"/>
<path d="M217.415 57.8418C218.414 57.8418 219.205 58.6319 219.205 59.6299C219.205 60.6278 218.414 61.4179 217.415 61.4179C216.416 61.4179 215.625 60.6278 215.625 59.6299C215.625 58.6319 216.416 57.8418 217.415 57.8418Z" fill="#DA293F"/>
<path d="M268.209 44.2858L263.088 51.6459L258.008 44.2858H255.011V61.4179H258.05L258.092 49.7331L263.046 56.9685H263.171L268.126 49.7331V61.4179H271.207V44.2858H268.209Z" fill="white"/>
<path d="M244.227 44.2025C239.231 44.2025 235.359 47.9866 235.359 52.8517C235.359 57.6754 239.273 61.4594 244.227 61.4594C249.224 61.4594 253.096 57.6754 253.096 52.8517C253.096 47.9866 249.182 44.2025 244.227 44.2025ZM249.765 52.8517C249.765 55.8873 247.225 58.4654 244.227 58.4654C241.23 58.4654 238.69 55.8873 238.69 52.8517C238.69 49.8162 241.23 47.2381 244.227 47.2381C247.225 47.2381 249.765 49.8162 249.765 52.8517Z" fill="white"/>
<path d="M231.529 56.1368C230.446 57.5507 228.823 58.3823 227.116 58.3823C224.118 58.3823 221.578 55.8458 221.578 52.8102C221.578 49.7747 224.118 47.2381 227.116 47.2381C228.864 47.2381 230.571 48.1113 231.612 49.6083L231.654 49.6499L234.194 47.6539L234.152 47.6124C232.487 45.4916 229.905 44.2441 227.116 44.2441C222.244 44.2441 218.581 47.945 218.581 52.8518C218.581 57.7586 222.244 61.501 227.116 61.501C229.905 61.501 232.487 60.2951 234.152 58.1328L234.194 58.0912L231.612 56.1368H231.529Z" fill="white"/>
<path d="M37.1379 6.36217V0H31.7671V6.36217C18.3191 7.60966 7.6191 18.338 6.37006 31.7693H0V36.9256H6.37006C7.41092 48.5272 15.5296 58.1328 26.3546 61.3763V55.3883C18.6938 52.4359 13.0316 45.3669 12.074 36.9256H16.3207V31.7693H12.074C13.2814 21.4567 21.4834 13.2649 31.7671 12.059V16.3005H37.1379V12.059C46.5473 13.1818 54.208 20.1261 56.373 29.1911H62.1602C59.8703 17.0074 49.6698 7.56808 37.1379 6.36217Z" fill="#DA293F"/>
<path d="M278.705 42.6972H277.106V47.0301H275.824V42.6972H274.254V41.7075H278.709V42.6972H278.705Z" fill="white"/>
<path d="M280.936 41.7075L282.127 45.4084L283.314 41.7075H285.004V47.0301H283.718V45.7868L283.843 43.2419L282.556 47.0301H281.707L280.416 43.2419L280.541 45.791V47.0343H279.259V41.7117H280.936V41.7075Z" fill="white"/>
</g>
<defs>
<clipPath id="clip0">
<rect width="285" height="62" fill="white"/>
</clipPath>
</defs>
</svg>
