<svg width="192" height="24" viewBox="0 0 192 24" fill="none" xmlns="http://www.w3.org/2000/svg">
<g clip-path="url(#clip0_4229_20496)">
<path d="M23.7007 5.12388H4.59937V9.94735H17.8149V14.4836H4.59937V23.4483H0V0.587646H0.521828H4.59937H23.7007V5.12388Z" fill="white"/>
<path d="M52.3493 5.12388H33.2479V9.94735H46.4634V14.4836H33.2479V18.9001H52.3493V23.4483H33.2479H29.1703H28.6486V0.587646H33.2479H52.3493V5.12388Z" fill="white"/>
<path d="M80.9735 23.4483H73.8499L65.7436 16.6978H61.8966V23.4483H57.297V0.587646H72.8305C74.295 0.587646 75.6259 0.950706 76.8233 1.67682C78.0288 2.40293 78.9874 3.3764 79.6993 4.59723C80.4194 5.81806 80.7793 7.16655 80.7793 8.64272C80.7793 10.1189 80.4233 11.4674 79.7114 12.6882C78.9994 13.9011 78.049 14.8666 76.8597 15.5847C75.6704 16.3029 74.3396 16.6739 72.8669 16.6978L80.9735 23.4483ZM61.8966 5.11191V12.1855H72.8305C73.7529 12.1855 74.5417 11.8384 75.197 11.1442C75.8523 10.45 76.18 9.61621 76.18 8.64272C76.18 7.66926 75.8523 6.83941 75.197 6.1532C74.5417 5.459 73.7529 5.11191 72.8305 5.11191H61.8966Z" fill="white"/>
<path d="M107.292 0.551697H109.598V23.4123H104.998V9.09752L99.2463 19.0078H96.273L90.5208 9.09752V23.4123H85.9215V0.551697H88.2272H90.8726L97.7535 12.4249L104.646 0.551697H107.292Z" fill="white"/>
<path d="M138.137 0.587646L128.769 12.9156V23.4483H124.169V12.8438L114.546 0.587646H120.371L126.475 8.35549L132.385 0.587646H138.137Z" fill="white"/>
<path d="M151.653 23.4483C153.271 23.4483 154.788 23.1531 156.204 22.5626C157.628 21.9642 158.873 21.1423 159.941 20.097C161.017 19.0517 161.859 17.8389 162.466 16.4584C163.08 15.0701 163.388 13.5899 163.388 12.018C163.388 10.4381 163.08 8.95792 162.466 7.57751C161.859 6.19709 161.017 4.98424 159.941 3.93894C158.873 2.89367 157.628 2.07578 156.204 1.48532C154.788 0.886871 153.271 0.587646 151.653 0.587646C150.035 0.587646 148.514 0.886871 147.09 1.48532C145.674 2.07578 144.428 2.89367 143.352 3.93894C142.284 4.98424 141.443 6.19709 140.828 7.57751C140.221 8.95792 139.918 10.4381 139.918 12.018C139.918 13.5899 140.221 15.0701 140.828 16.4584C141.443 17.8389 142.284 19.0517 143.352 20.097C144.428 21.1423 145.674 21.9642 147.09 22.5626C148.514 23.1531 150.035 23.4483 151.653 23.4483ZM151.653 5.1478C152.947 5.1478 154.128 5.459 155.196 6.0814C156.264 6.6958 157.114 7.52564 157.745 8.57091C158.384 9.60824 158.704 10.7572 158.704 12.018C158.704 13.2787 158.384 14.4317 157.745 15.477C157.114 16.5143 156.264 17.3442 155.196 17.9665C154.128 18.5809 152.947 18.8881 151.653 18.8881C150.358 18.8881 149.177 18.5809 148.109 17.9665C147.041 17.3442 146.188 16.5143 145.549 15.477C144.918 14.4317 144.602 13.2787 144.602 12.018C144.602 10.7572 144.918 9.60824 145.549 8.57091C146.188 7.52564 147.041 6.6958 148.109 6.0814C149.177 5.459 150.358 5.1478 151.653 5.1478Z" fill="white"/>
<path d="M187.401 0.587646H192V23.4483H189.694H186.721L172.923 6.91922V23.4483H168.323V0.587646H173.602L187.401 17.1167V0.587646Z" fill="white"/>
</g>
<defs>
<clipPath id="clip0_4229_20496">
<rect width="192" height="24" fill="white"/>
</clipPath>
</defs>
</svg>
