<svg width="195" height="40" viewBox="0 0 195 40" fill="none" xmlns="http://www.w3.org/2000/svg">
<path fill-rule="evenodd" clip-rule="evenodd" d="M20.87 19.8888L21.7628 19.3764L32.937 27.055L20.87 19.8888ZM20.2281 19.4793L19.3975 19.0002L20.3235 4.34444L20.2281 19.4793ZM19.2274 19.4294L15.5245 22.5006L19.9616 19.8774L19.2274 19.4294Z" fill="white"/>
<path fill-rule="evenodd" clip-rule="evenodd" d="M20.4541 0C9.43442 0 0.5 8.9539 0.5 20C0.5 31.0461 9.43442 40 20.4541 40C31.4749 40 40.4093 31.0461 40.4093 20C40.4093 8.9539 31.4749 0 20.4541 0ZM20.4562 38.9336C15.8967 38.9336 11.6297 37.41 8.45034 34.6131C5.3571 31.89 2.95448 27.5633 2.36134 22.9642C3.76745 31.7102 11.3341 38.3911 20.4562 38.3911C30.579 38.3911 38.7855 30.1658 38.7855 20.0197C38.7855 15.8104 37.2165 11.6884 34.8398 8.59118C37.2477 10.4526 39.3268 15.7543 39.3268 20.0197C39.3268 30.4651 30.8776 38.9336 20.4562 38.9336ZM18.7235 18.5751L20.337 1.99241L20.4541 1.99137H20.4956L20.6543 19.4419L23.4312 17.7779L20.6377 1.99345C30.4763 2.09219 38.4236 10.1148 38.4236 20C38.4236 23.1762 37.6023 26.1591 36.163 28.7491L23.6915 18.2903L22.5104 18.9617L36.078 28.8988L35.9743 29.0776L20.7165 20.2796V23.3831L35.8695 29.2532C32.7286 34.4977 27.0005 38.0086 20.4531 38.0086C13.913 38.0086 8.18903 34.505 5.04705 29.2688L20.1908 23.3508V20.2484L4.91536 29.0464L4.81477 28.8718L18.3346 18.9617L17.1535 18.2903L4.71626 28.6941C3.24937 26.0325 2.48216 23.0406 2.48681 20C2.48681 10.1928 10.3086 2.21691 20.0404 1.99553L17.6067 17.9037L18.7235 18.5751ZM20.4541 1.07467C10.0317 1.07467 1.58362 9.54321 1.58362 19.9886C1.58362 24.2311 3.11935 28.244 5.46184 31.7102C6.25614 33.1996 7.11578 34.1215 8.26265 35.3386C3.76849 31.7404 0.860861 26.2017 0.860861 19.9875C0.860861 9.14202 9.63247 0.349216 20.4541 0.349216C31.2758 0.349216 40.2144 9.5245 39.8929 19.9875C39.6213 9.77913 30.7045 1.07467 20.4541 1.07467ZM108.107 21.3241C108.107 17.8163 106.56 14.9727 103.163 14.9727C100.009 14.9727 98.2165 17.8163 98.2165 21.3241C98.2165 24.8319 99.7149 27.6755 103.163 27.6755C106.511 27.6755 107.495 26.0126 108.01 23.3529L106.855 23.3487C106.758 24.3351 106.116 26.5572 103.655 26.606C100.848 26.6632 100.652 23.0525 100.7 21.3252L100.749 20.3378C100.749 19.2527 100.651 16.0443 103.26 16.0443C105.328 16.0443 105.624 18.7102 105.624 20.3378H100.749L100.7 21.3252L108.107 21.3241ZM49.857 10.6023L49.8073 11.3922H50.5456C51.0869 11.3922 51.7775 11.441 51.7775 12.1322L51.5317 25.5085C51.5317 26.0022 51.2849 26.5447 50.2998 26.5447H49.5615L49.5117 27.3346H54.485V26.5447H53.6482C53.0073 26.5447 52.5645 26.3472 52.5645 25.5085L52.8103 12.6758L58.1288 26.4948H58.6701L64.0374 12.5272L64.2842 25.5085C64.2842 25.9523 63.8404 26.5447 63.1508 26.5447H62.117V27.3346H68.3709V26.5447H67.6325C67.0913 26.5447 66.4504 26.2485 66.4504 25.5573L66.2036 12.3297C66.2036 11.8848 66.6962 11.3922 67.1887 11.3922H68.1241V10.6023H63.6423L59.0134 22.7438L54.3844 10.6023H49.857ZM84.4976 27.345V26.7037H84.005C83.5623 26.7037 82.7742 26.5551 82.7742 25.6665V19.2007C82.7742 17.1772 83.808 16.4371 84.8419 16.4371C85.2359 16.4371 85.4827 16.6346 85.3832 17.3746C85.2847 18.1146 85.9245 18.6083 86.4668 18.5595C87.0091 18.5106 87.6987 18.4108 87.5991 17.0296C87.4996 15.6483 86.7136 15.006 85.3344 15.006C84.2508 15.006 83.3642 15.6971 83.1185 16.0432C82.8323 16.4455 82.4776 16.2896 82.4289 15.8458C82.3801 15.402 82.1831 14.9582 81.6906 15.1057C80.7485 15.4076 79.7723 15.5899 78.785 15.6483V16.142C80.8527 16.0432 80.6567 17.0795 80.6567 17.5731V25.6675C80.6567 26.5561 79.8686 26.7048 79.4248 26.7048H78.7352V27.346L84.4976 27.345ZM95.4676 15.7574C94.7417 15.2263 93.8292 14.9218 92.7186 14.9218C89.5673 14.9218 87.7734 17.7654 87.7734 21.2742C87.7734 24.782 89.2707 27.609 92.7186 27.6256C95.7714 27.6412 96.5107 25.9138 97.024 23.2531L95.8699 23.2479C95.7714 24.2343 95.4271 26.5052 93.2111 26.5551C90.4051 26.6185 90.2081 23.0006 90.2569 21.2742C90.2569 20.1881 90.4051 15.8437 92.7684 15.8437C94.7863 15.8437 96.0182 17.2759 96.0182 18.9045H96.658V14.7586H96.1167L95.4676 15.7574ZM166.707 26.605C163.9 26.6622 163.704 23.0515 163.752 21.3241H171.159C171.159 17.8163 169.614 14.9727 166.215 14.9727C163.064 14.9727 161.271 17.8163 161.271 21.3241C161.271 24.8319 162.767 27.6755 166.215 27.6755C169.563 27.6755 170.549 26.0126 171.062 23.3529L169.91 23.3477C169.81 24.3351 169.17 26.5572 166.707 26.605ZM166.314 16.0432C168.382 16.0432 168.678 18.7091 168.678 20.3367H163.803C163.803 19.2517 163.704 16.0432 166.314 16.0432ZM126.224 26.605C123.417 26.6622 123.221 23.0515 123.268 21.3241H130.675C130.675 17.8163 129.128 14.9727 125.731 14.9727C122.58 14.9727 120.785 17.8163 120.785 21.3241C120.785 24.8319 122.283 27.6755 125.731 27.6755C129.079 27.6755 130.064 26.0126 130.578 23.3529L129.424 23.3477C129.326 24.3351 128.686 26.5572 126.224 26.605ZM125.829 16.0432C127.898 16.0432 128.192 18.7091 128.192 20.3367H123.317C123.317 19.2517 123.221 16.0432 125.829 16.0432ZM73.9601 26.605C71.1541 26.6622 70.957 23.0515 71.0058 21.3241H78.4127C78.4127 17.8163 76.8656 14.9727 73.4685 14.9727C70.3162 14.9727 68.5233 17.8163 68.5233 21.3241C68.5233 24.8319 70.0207 27.6755 73.4685 27.6755C76.8169 27.6755 77.802 26.0126 78.3153 23.3529L77.1611 23.3487C77.0626 24.3351 76.4228 26.5572 73.9601 26.605ZM73.566 16.0432C75.6347 16.0432 75.9292 18.7091 75.9292 20.3367H71.0545C71.0545 19.2517 70.957 16.0432 73.566 16.0432ZM118.831 24.7674V10.9962C118.831 10.4287 118.538 9.95895 118.043 10.1076C117.101 10.4098 116.126 10.592 115.139 10.6501V11.1438C116.567 11.0451 116.715 11.4899 116.715 11.9836V16.2282C116.075 15.6358 115.336 15.0434 114.007 15.0434C112.333 15.0434 109.23 16.3758 109.23 21.0643C109.23 27.2348 112.825 27.6287 113.909 27.6287C114.992 27.6287 116.42 26.7412 116.716 26.2714C116.74 26.1726 116.888 26.049 116.937 26.2714C116.988 26.7162 117.307 27.3814 117.799 27.2338C118.741 26.9321 119.717 26.7499 120.704 26.6913V26.1976C118.635 26.2974 118.831 25.2601 118.831 24.7674ZM116.715 23.2864C116.666 26.0001 115.238 26.8399 114.056 26.8399C111.397 26.791 111.593 22.7439 111.593 21.0154C111.593 19.287 111.693 15.8821 114.105 16.1783C116.519 16.4746 116.716 19.0407 116.716 20.5706L116.715 23.2864ZM147.738 20.2796V19.1446H141.24V20.2796H147.738ZM132.286 23.1492V27.344H132.826L133.319 26.2579C133.811 26.7027 134.846 27.4427 136.174 27.4427C137.505 27.4427 139.376 26.7027 140.116 25.3214C140.853 23.9391 140.509 21.6681 138.834 20.977C137.368 20.3721 136.082 19.6477 135.092 19.1509C134.784 19.0037 134.531 18.761 134.372 18.4586C134.212 18.1562 134.154 17.8104 134.206 17.4723C134.354 16.6824 135.043 15.8437 136.618 15.7938C138.194 15.7449 138.981 17.0774 139.18 18.6073H139.721V14.6599H139.228L138.686 15.5974C137.653 14.9062 137.209 14.8075 136.274 14.8075C135.339 14.8075 133.762 15.3011 132.876 16.6835C131.99 18.0658 132.236 20.2359 134.354 21.1256C136.471 22.0132 137.457 22.5568 138.047 22.853C138.638 23.1492 138.982 24.334 138.589 25.0252C138.194 25.7153 137.457 26.5063 136.275 26.5063C135.093 26.5063 133.223 25.6665 132.779 23.1502L132.286 23.1492ZM156.994 18.3017C158.177 18.0055 159.36 15.8832 159.36 14.452C159.36 13.0208 158.817 10.6023 155.369 10.6023H147.983V11.2436C148.723 11.2436 150.002 11.3922 150.002 12.6259V24.8173C150.002 25.5085 149.953 26.6434 147.983 26.6434V27.3346H154.041C155.862 27.3346 160.048 27.186 160.148 22.3499C160.148 20.7203 159.36 18.7954 156.994 18.3017ZM152.12 11.3922H154.582C156.405 11.3922 157.143 12.7236 157.143 14.452C157.143 16.5743 156.503 18.203 154.582 18.203H152.12V11.3922ZM154.631 26.5447H152.12V18.9929H154.927C156.553 18.9929 157.98 20.1278 157.98 22.5952C157.98 25.0637 156.502 26.5447 154.631 26.5447ZM180.259 18.362V25.6665C180.259 26.5551 179.471 26.7037 179.028 26.7037H178.732V27.345H184.099V26.7037H183.607C183.163 26.7037 182.375 26.5551 182.375 25.6665V18.4119C182.326 15.1047 179.372 15.006 178.338 15.006C177.254 15.006 176.071 15.6971 175.826 16.0432C175.539 16.4455 175.185 16.2896 175.136 15.8458C175.087 15.402 174.891 14.9582 174.396 15.1057C173.455 15.4076 172.479 15.5899 171.492 15.6483V16.142C173.56 16.0432 173.364 17.0795 173.364 17.5731V25.6675C173.364 26.5561 172.576 26.7048 172.132 26.7048H171.443V27.346H177.204V26.7048H176.711C176.267 26.7048 175.479 26.5561 175.479 25.6675V19.2018C175.479 18.1167 175.874 16.3883 177.893 16.2397C179.914 16.0921 180.259 17.4245 180.259 18.362ZM185.241 18.6094L186.128 15.2533H194.5L187.31 26.6549H191.15C192.036 26.6549 192.726 26.3088 193.661 24.0378H194.056L193.268 27.345H184.699L191.84 15.9445H188.638C187.85 15.9445 186.965 15.9445 185.734 18.6094H185.241Z" fill="white"/>
</svg>
