<svg width="94" height="30" viewBox="0 0 94 30" fill="none" xmlns="http://www.w3.org/2000/svg">
<g clip-path="url(#clip0_4229_20491)">
<path d="M15.5118 29.5427H9.01121V6.02393H0.25V0.457589H24.3199V6.02393H15.5118V29.5427ZM52.3663 18.0774H39.3241V29.5427H32.8234V0.457589H39.3241V12.5883H52.3663V0.457589H58.8669V29.5427H52.3663V18.0774ZM85.8885 6.61204C84.4868 6.02987 83.0872 5.73878 81.6894 5.73878C80.0145 5.73878 78.486 6.1467 77.1038 6.96254C75.7178 7.78234 74.6266 8.89125 73.8301 10.2893C73.0336 11.6873 72.6354 13.2457 72.6354 14.9645C72.6393 16.6794 73.0453 18.2497 73.8535 19.6754C74.6617 21.1051 75.7588 22.2279 77.1448 23.0437C78.527 23.8596 80.0555 24.2675 81.7304 24.2675C82.5816 24.2675 83.501 24.1229 84.4888 23.8338C85.4766 23.5408 86.4351 23.1467 87.3643 22.6516V14.8814H93.004V26.1804C91.4657 27.317 89.6268 28.2378 87.4873 28.9427C85.3516 29.6516 83.296 30.0061 81.3205 30.0061C78.4391 30.0061 75.833 29.3467 73.5021 28.0279C71.1713 26.713 69.3343 24.913 67.9912 22.6279C66.6443 20.3427 65.9708 17.7883 65.9708 14.9645C65.9708 12.1645 66.6579 9.62195 68.0322 7.3368C69.4026 5.05165 71.2884 3.25759 73.6895 1.95462C76.0868 0.655609 78.7534 0.00610352 81.6894 0.00610352C83.829 0.00610352 85.9197 0.392242 87.9616 1.16452C90.0075 1.94076 91.7703 2.99422 93.25 4.32492L89.5897 9.01798C88.52 7.9962 87.2862 7.19422 85.8885 6.61204Z" fill="white"/>
</g>
<defs>
<clipPath id="clip0_4229_20491">
<rect width="93" height="30" fill="white" transform="translate(0.25)"/>
</clipPath>
</defs>
</svg>
