<svg width="220" height="34" viewBox="0 0 220 34" fill="none" xmlns="http://www.w3.org/2000/svg">
<mask id="mask0_4983_25769" style="mask-type:luminance" maskUnits="userSpaceOnUse" x="0" y="1" width="29" height="31">
<path d="M0 1.65283H28.6573V31.8821H0V1.65283Z" fill="white"/>
</mask>
<g mask="url(#mask0_4983_25769)">
<path d="M28.5817 5.68701C28.6049 5.82254 28.6481 5.95807 28.6481 6.0936C28.6514 11.7272 28.6487 17.3608 28.6576 22.9942C28.658 23.2988 28.5491 23.4442 28.3183 23.5809C26.1858 24.8444 24.0587 26.1194 21.9306 27.3915C21.8146 27.4607 21.7013 27.5356 21.5869 27.6076C21.5567 27.4281 21.5003 27.2487 21.5001 27.0692C21.4943 24.4973 21.4965 21.9251 21.495 19.3531C21.495 19.1874 21.4815 19.0214 21.4729 18.8235C21.3658 18.8672 21.3096 18.8821 21.2604 18.9114C18.9811 20.2737 16.7024 21.6375 14.4237 23.001C14.3952 22.9923 14.3668 22.9834 14.3384 22.9744C14.339 20.2851 14.3377 17.596 14.3443 14.9067C14.345 14.6547 14.3968 14.4026 14.4248 14.1506C15.2001 13.6914 15.9767 13.2345 16.7507 12.7729C19.9503 10.8651 23.1491 8.95574 26.3471 7.04489C27.0951 6.59769 27.8371 6.13987 28.5817 5.68701Z" fill="#1F009D"/>
<path d="M14.3388 22.9744L14.4241 23.0011C14.3936 23.1878 14.3425 23.3736 14.3372 23.5611C14.3242 24.0076 14.3328 24.4548 14.3328 24.9017C14.3328 27.0088 14.3341 29.1159 14.3304 31.2227C14.3299 31.4368 14.3886 31.6819 14.1582 31.8231C11.9271 30.4884 9.69693 29.152 7.46497 27.8191C5.54272 26.6712 3.61695 25.5298 1.69559 24.3799C1.15485 24.0562 0.623586 23.7134 0.0881348 23.3793C0.0907801 23.1234 0.0954094 22.8674 0.0956298 22.6115V6.53348C0.0956298 6.38945 0.0876938 6.24472 0.099818 6.10187C0.108636 6.00034 0.145009 5.90188 0.181161 5.75195C0.438195 5.90543 0.654448 6.03529 0.870921 6.16373C1.93036 6.79202 2.9909 7.41748 4.0488 8.04861C5.09369 8.67194 6.13593 9.30094 7.17906 9.92758C7.17641 12.7578 7.17244 15.5883 7.17531 18.4188C7.17553 18.5532 7.23637 18.6875 7.26878 18.8219C9.50361 20.1585 11.738 21.4961 13.9746 22.8296C14.0864 22.8962 14.2171 22.9269 14.3388 22.9744Z" fill="#6DCAFF"/>
<path d="M7.2688 18.8217C7.23618 18.6873 7.17556 18.5532 7.17556 18.4189C7.17269 15.5886 7.17666 12.7581 7.1793 9.9276C8.72129 9.02282 10.265 8.12135 11.8048 7.21232C12.5929 6.74694 13.3744 6.26787 14.1587 5.79471C14.3183 5.71514 14.4827 5.64478 14.637 5.55458C16.7751 4.3039 18.9147 3.05558 21.0464 1.79192C21.3316 1.62286 21.5518 1.5976 21.8534 1.7735C23.954 2.99892 26.0669 4.19907 28.1745 5.41008C28.3156 5.4913 28.4461 5.59425 28.5812 5.68704C27.8368 6.1399 27.0948 6.59796 26.3471 7.04468C23.1491 8.95558 19.9502 10.8649 16.7506 12.7727C15.9769 13.2346 15.2 13.6912 14.425 14.1504C14.2583 14.0909 14.0795 14.0569 13.9281 13.9682C12.8925 13.3595 11.8623 12.739 10.8302 12.1227C9.81137 11.514 8.79293 10.9039 7.77207 10.2988C7.63694 10.2185 7.4888 10.1649 7.34001 10.0955C7.22868 10.5665 7.19187 16.1706 7.2688 18.8217Z" fill="#5429FF"/>
<path d="M14.158 31.8231C14.3881 31.6821 14.3299 31.437 14.3301 31.2229C14.3341 29.1158 14.3323 27.0088 14.3323 24.9019C14.3323 24.455 14.3242 24.0078 14.337 23.5611C14.3425 23.3736 14.3936 23.1878 14.4238 23.0012C16.7025 21.6377 18.9812 20.2739 21.2606 18.9116C21.3095 18.8823 21.3659 18.8672 21.4728 18.8237C21.4817 19.0216 21.4949 19.1873 21.4951 19.3531C21.4964 21.9253 21.4942 24.4972 21.5 27.0692C21.5004 27.2489 21.5566 27.4281 21.587 27.6075C20.2245 28.4183 18.8619 29.2287 17.4998 30.0402C16.5356 30.6144 15.573 31.1915 14.6081 31.7647C14.4679 31.8479 14.3237 31.9484 14.158 31.8231Z" fill="#B9E5FF"/>
<path d="M14.1587 5.79507C13.3742 6.26824 12.5929 6.74731 11.8048 7.21268C10.2651 8.12171 8.72153 9.02342 7.17932 9.92796C6.13598 9.30132 5.09395 8.67232 4.04884 8.04899C2.99072 7.41787 1.93018 6.79241 0.870965 6.16388C0.654492 6.03544 0.438239 5.90605 0.180984 5.75234C0.145052 5.90227 0.108459 6.00073 0.0998621 6.10202C0.0877378 6.2451 0.0958942 6.39007 0.0958942 6.5341C0.0958942 11.8934 0.0958945 17.2526 0.0954536 22.6121C0.0954536 22.868 0.0906038 23.124 0.0879585 23.3799C0.0610647 23.1929 0.0103632 23.0057 0.0101427 22.8189C0.0061748 17.2828 0.0101428 11.7467 2.55972e-06 6.21087C-0.000658763 5.80428 0.126756 5.58139 0.460283 5.39298C2.53767 4.21943 4.6078 3.03121 6.67054 1.82841C7.01972 1.62488 7.28381 1.62819 7.64159 1.84682C9.57926 3.03116 11.5374 4.17535 13.4864 5.3382C13.7178 5.47609 13.935 5.64231 14.1587 5.79507Z" fill="#99DAFF"/>
<path d="M7.26885 18.8219C7.1917 16.1708 7.22873 10.5665 7.33939 10.0952C7.48885 10.1649 7.63699 10.2187 7.7719 10.2987C8.79254 10.9039 9.81097 11.514 10.8301 12.1227C11.862 12.739 12.8923 13.3595 13.9279 13.9681C14.0794 14.0572 14.2586 14.0909 14.4248 14.1504C14.3968 14.4026 14.3452 14.6545 14.3443 14.9067C14.3377 17.5958 14.3391 20.2851 14.3384 22.9744C14.2165 22.9269 14.0862 22.8962 13.9742 22.8294C11.7381 21.4963 9.50368 20.1587 7.26885 18.8219Z" fill="#2900CE"/>
</g>
<path d="M49.224 22.1642L49.8071 26.5752C48.3665 27.0406 47.0062 27.2734 45.7256 27.2734C43.8281 27.2734 42.456 26.8324 41.6102 25.9503C40.7871 25.0682 40.3755 23.659 40.3755 21.7232V11.7989H37.2545V7.68211H40.3755V2.09501H45.5199V7.68211H49.5326V11.7989H45.5199V20.7306C45.5199 21.3676 45.6571 21.8209 45.9315 22.0906C46.206 22.3356 46.6288 22.4582 47.2004 22.4582C47.6349 22.4582 48.3094 22.3604 49.224 22.1642ZM60.4881 7.35132C61.197 7.35132 62.1687 7.57185 63.4034 8.0129L62.443 12.865C61.3683 12.5953 60.5911 12.4605 60.1109 12.4605C58.9677 12.4605 58.0646 12.9384 57.4015 13.894C56.7384 14.8252 56.4069 16.1117 56.4069 17.7534V26.7958H51.2624V7.68211H56.0297V10.4021C56.9899 8.36825 58.4761 7.35132 60.4881 7.35132ZM75.2744 7.68211H80.4188V26.7958H75.7204V24.774C74.6457 26.5384 72.9194 27.4205 70.5415 27.4205C68.4381 27.4205 66.8604 26.8815 65.8087 25.8032C64.7797 24.7251 64.2654 23.1812 64.2654 21.1718V7.68211H69.4098V19.7016C69.4098 21.6375 70.29 22.6055 72.0507 22.6055C74.1997 22.6055 75.2744 21.3924 75.2744 18.9666V7.68211ZM91.7793 22.7524C92.7168 22.7524 93.5514 22.581 94.283 22.2379C95.0147 21.8703 95.8834 21.2332 96.8895 20.3266L99.7017 23.7816C97.3467 26.2076 94.6602 27.4205 91.6421 27.4205C88.7156 27.4205 86.3833 26.5016 84.6456 24.6637C82.9308 22.826 82.0735 20.3754 82.0735 17.3124C82.0735 14.2984 82.8966 11.8358 84.5428 9.92446C86.1891 7.98835 88.4067 7.02053 91.1962 7.02053C93.9171 7.02053 96.0093 7.8658 97.4726 9.55683C98.9586 11.2474 99.7017 13.6246 99.7017 16.6876C99.7017 17.3738 99.679 18.0842 99.6331 18.8195H87.0464C87.5951 21.4415 89.1728 22.7524 91.7793 22.7524ZM91.1276 11.3211C89.0471 11.3211 87.7209 12.534 87.1493 14.96H94.7973C94.5458 12.534 93.3226 11.3211 91.1276 11.3211ZM109.936 4.48422C109.273 4.48422 108.804 4.6436 108.53 4.96211C108.255 5.25631 108.118 5.78307 108.118 6.54264V7.68211H111.857V11.7989H108.118V26.7958H102.974V11.7989H99.99V7.68211H102.974V6.32211C102.974 2.10753 104.963 0 108.941 0C110.176 0 111.479 0.220527 112.851 0.661583L111.96 4.74158C111.297 4.5701 110.618 4.48371 109.936 4.48422ZM121.098 7.02053C123.841 7.02053 126.094 7.97631 127.854 9.88762C129.615 11.7744 130.495 14.2127 130.495 17.2021C130.495 20.2163 129.615 22.6789 127.854 24.5903C126.094 26.477 123.841 27.4205 121.098 27.4205C118.331 27.4205 116.067 26.477 114.307 24.5903C112.546 22.6789 111.666 20.2163 111.666 17.2021C111.666 14.2127 112.546 11.7744 114.307 9.88739C116.067 7.97631 118.331 7.02053 121.098 7.02053ZM121.098 11.6884C119.84 11.6884 118.823 12.1909 118.045 13.1958C117.268 14.2004 116.879 15.5356 116.879 17.2021C116.879 18.8929 117.268 20.2406 118.045 21.2455C118.823 22.2502 119.84 22.7524 121.098 22.7524C122.355 22.7524 123.361 22.2502 124.116 21.2455C124.893 20.2406 125.282 18.8929 125.282 17.2021C125.282 15.5359 124.893 14.2004 124.116 13.1958C123.338 12.1909 122.332 11.6884 121.098 11.6884ZM143.067 7.68211H148.212V26.7958H143.513V24.774C142.439 26.5384 140.712 27.4205 138.334 27.4205C136.231 27.4205 134.653 26.8815 133.602 25.8032C132.573 24.7251 132.058 23.1812 132.058 21.1718V7.68211H137.203V19.7016C137.203 21.6375 138.083 22.6055 139.844 22.6055C141.993 22.6055 143.067 21.3924 143.067 18.9666V7.68211ZM160.807 7.02053C162.796 7.02053 164.351 7.62096 165.471 8.82158C166.615 10.0224 167.186 11.6518 167.186 13.7103V26.7958H162.041V15.254C162.041 14.1513 161.779 13.306 161.253 12.7179C160.75 12.1052 160.018 11.7989 159.058 11.7989C158.098 11.7989 157.332 12.1177 156.76 12.7545C156.188 13.3917 155.902 14.2616 155.902 15.3642V26.7958H150.758V7.68211H155.525V9.74053C156.737 7.92719 158.498 7.02053 160.807 7.02053ZM181.935 0.698417H187.08V26.7958H182.313V24.48C181.055 26.4159 179.192 27.3837 176.722 27.3837C174.413 27.3837 172.515 26.4647 171.029 24.6271C169.566 22.7647 168.834 20.3143 168.834 17.2758C168.834 14.2127 169.566 11.7621 171.029 9.92422C172.515 8.06201 174.425 7.13103 176.757 7.13103C178.974 7.13103 180.701 7.89036 181.935 9.40974V0.698417ZM178.06 22.7158C179.249 22.7158 180.221 22.2133 180.975 21.2087C181.73 20.204 182.107 18.8929 182.107 17.2758C182.107 15.6584 181.73 14.3598 180.975 13.3795C180.221 12.3748 179.26 11.8724 178.094 11.8724C176.882 11.8724 175.899 12.3625 175.145 13.3426C174.39 14.323 174.013 15.6339 174.013 17.2758C174.013 18.9175 174.379 20.2406 175.11 21.2455C175.842 22.2256 176.825 22.7158 178.06 22.7158ZM198.854 7.35132C199.563 7.35132 200.534 7.57185 201.769 8.0129L200.809 12.865C199.734 12.5953 198.957 12.4605 198.477 12.4605C197.333 12.4605 196.43 12.9384 195.767 13.894C195.104 14.8252 194.773 16.1117 194.773 17.7534V26.7958H189.628V7.68211H194.395V10.4021C195.356 8.36825 196.842 7.35132 198.854 7.35132ZM214.718 7.68211H220L213.209 28.7071C212.615 30.5939 211.803 31.9416 210.774 32.7503C209.745 33.5835 208.374 34 206.659 34C205.218 34 203.984 33.8163 202.955 33.4487L203.812 29.3687C204.498 29.5158 205.218 29.5892 205.973 29.5892C207.23 29.5892 208.111 29.0256 208.614 27.8984L201.891 7.68211H207.31L208.682 12.1297C209.848 15.8298 210.648 18.5376 211.083 20.2529C211.586 18.317 212.352 15.6093 213.381 12.1297L214.718 7.68211Z" fill="white"/>
</svg>
